<svg width="25" height="25" viewBox="0 0 25 25" fill="none" xmlns="http://www.w3.org/2000/svg">
<g opacity="0.7" clip-path="url(#clip0_1_4996)">
<path d="M21.038 21.7436L16.5465 17.244L21.038 21.7436ZM19.0355 11.2307C19.0355 13.4878 18.1389 15.6524 16.5429 17.2485C14.9469 18.8445 12.7822 19.7411 10.5251 19.7411C8.26798 19.7411 6.10332 18.8445 4.5073 17.2485C2.91128 15.6524 2.01465 13.4878 2.01465 11.2307C2.01465 8.97355 2.91128 6.80888 4.5073 5.21287C6.10332 3.61685 8.26798 2.72021 10.5251 2.72021C12.7822 2.72021 14.9469 3.61685 16.5429 5.21287C18.1389 6.80888 19.0355 8.97355 19.0355 11.2307V11.2307Z" stroke="white" stroke-width="2.40295" stroke-linecap="round"/>
</g>
<defs>
<clipPath id="clip0_1_4996">
<rect width="24.0295" height="24.0295" fill="white" transform="translate(0.012207 0.717773)"/>
</clipPath>
</defs>
</svg>
