<svg width="30" height="30" viewBox="0 0 30 30" fill="none" xmlns="http://www.w3.org/2000/svg">
<g clip-path="url(#clip0_1_5053)">
<path d="M27.3637 0.369995H2.68754C1.53894 0.369995 0.60791 1.30102 0.60791 2.44962V27.1258C0.60791 28.2744 1.53894 29.2054 2.68754 29.2054H16.0112V18.0542H12.266V13.6895H16.0112V10.4773C16.0112 6.75232 18.2853 4.72483 21.6081 4.72483C23.1996 4.72483 24.5673 4.84341 24.9659 4.89642V8.7897H22.6747C20.8667 8.7897 20.5167 9.64879 20.5167 10.9096V13.6895H24.8392L24.276 18.0542H20.5167V29.2054H27.3637C28.5123 29.2054 29.4433 28.2744 29.4433 27.1258V2.44962C29.4433 1.30102 28.5123 0.369995 27.3637 0.369995V0.369995Z" fill="#808080"/>
</g>
<defs>
<clipPath id="clip0_1_5053">
<rect width="28.8354" height="28.8354" fill="white" transform="translate(0.60791 0.369995)"/>
</clipPath>
</defs>
</svg>
