<svg width="25" height="25" viewBox="0 0 25 25" fill="none" xmlns="http://www.w3.org/2000/svg">
<g opacity="0.7" clip-path="url(#clip0_1_5012)">
<path d="M15.9842 17.3672C15.9222 16.526 15.9048 15.6821 15.9321 14.8391L15.9311 14.8762C16.6845 14.0951 17.1544 13.0841 17.2657 12.0046L17.2677 11.9836C17.6072 11.9556 18.1428 11.6252 18.299 10.3156C18.3461 10.09 18.3284 9.85572 18.2477 9.63987C18.1671 9.42402 18.0269 9.23546 17.8434 9.09606L17.8404 9.09406C18.3931 7.43201 19.5405 2.2897 15.7168 1.75905C15.3233 1.0682 14.3161 0.717773 13.0065 0.717773C7.76707 0.813891 7.1353 4.67363 8.28071 9.09406C8.09576 9.23473 7.9547 9.42516 7.87402 9.64308C7.79335 9.86099 7.77639 10.0974 7.82515 10.3246L7.82414 10.3166C7.98434 11.6242 8.51599 11.9566 8.85541 11.9846C8.97447 13.0761 9.45932 14.0952 10.2311 14.8762C10.2565 15.734 10.2371 16.5925 10.173 17.4483L10.178 17.3672C9.13876 20.1546 2.14217 19.3717 1.82178 24.7473H24.3074C23.985 19.3717 17.0204 20.1546 15.9832 17.3672H15.9842Z" fill="white"/>
</g>
<defs>
<clipPath id="clip0_1_5012">
<rect width="24.0295" height="24.0295" fill="white" transform="translate(0.620605 0.717773)"/>
</clipPath>
</defs>
</svg>
