<svg width="30" height="30" viewBox="0 0 30 30" fill="none" xmlns="http://www.w3.org/2000/svg">
<g clip-path="url(#clip0_1_5054)">
<path d="M28.2204 1.45901C27.4945 0.73289 26.6246 0.369995 25.6111 0.369995H4.17208C3.15829 0.369995 2.28863 0.733022 1.56252 1.45901C0.836528 2.1848 0.473633 3.05459 0.473633 4.06818V25.507C0.473633 26.5205 0.836462 27.3904 1.56252 28.1163C2.28863 28.8422 3.15849 29.2054 4.17208 29.2054H25.6108C26.6241 29.2054 27.4943 28.8422 28.2202 28.1163C28.9463 27.3904 29.3089 26.5205 29.3089 25.507V4.06818C29.3088 3.05439 28.9463 2.18506 28.2204 1.45901ZM10.8273 10.7607C11.9598 9.6658 13.3209 9.11807 14.9104 9.11807C16.5122 9.11807 17.8794 9.6658 19.0122 10.7607C20.145 11.8559 20.7111 13.1795 20.7111 14.7313C20.7111 16.283 20.145 17.6067 19.0122 18.7015C17.8794 19.7969 16.5126 20.3445 14.9104 20.3445C13.321 20.3445 11.96 19.7964 10.8273 18.7015C9.69448 17.6066 9.12814 16.283 9.12814 14.7313C9.12814 13.1795 9.69448 11.8559 10.8273 10.7607ZM26.0429 24.7376C26.0429 25.0628 25.9299 25.3349 25.7049 25.554C25.4791 25.773 25.2105 25.8825 24.8973 25.8825H4.82923C4.50388 25.8825 4.23146 25.773 4.01263 25.554C3.79347 25.3353 3.68399 25.0628 3.68399 24.7376V12.5722H6.33091C6.08072 13.3608 5.95559 14.1807 5.95559 15.0316C5.95559 17.4351 6.83156 19.4841 8.5837 21.1803C10.336 22.8758 12.4448 23.724 14.9103 23.724C16.5373 23.724 18.0391 23.3358 19.4162 22.5599C20.7929 21.7836 21.8811 20.7294 22.6826 19.3964C23.4837 18.0634 23.8842 16.6084 23.8842 15.0316C23.8842 14.1808 23.7586 13.3611 23.5084 12.5723H26.043V24.7377H26.0429V24.7376ZM26.0429 7.97284C26.0429 8.3358 25.9178 8.64247 25.667 8.89273C25.4169 9.14319 25.1104 9.26825 24.7472 9.26825H21.4808C21.1181 9.26825 20.8111 9.14312 20.5609 8.89273C20.3107 8.64247 20.1856 8.3358 20.1856 7.97284V4.87557C20.1856 4.52511 20.3107 4.22165 20.5609 3.96502C20.8112 3.70851 21.1181 3.58009 21.4808 3.58009H24.7472C25.1104 3.58009 25.4169 3.70844 25.667 3.96502C25.9177 4.22165 26.0429 4.52511 26.0429 4.87557V7.97284Z" fill="#808080"/>
</g>
<defs>
<clipPath id="clip0_1_5054">
<rect width="28.8354" height="28.8354" fill="white" transform="translate(0.472656 0.369995)"/>
</clipPath>
</defs>
</svg>
