<svg width="90" height="29" viewBox="0 0 90 29" fill="none" xmlns="http://www.w3.org/2000/svg">
<path d="M12.3338 24.0243V28.0229L9.79944 28.1168C7.27134 28.2044 5.54422 27.7664 4.61808 26.8027C4.01734 26.1894 3.71697 25.2445 3.71697 23.968V11.3712H0.863472V7.56032H3.71697V1.85332H9.01097V7.56032H12.3338V11.3712H9.01097V22.1845C9.01097 23.023 9.11735 23.5487 9.33011 23.7615C9.54287 23.9617 10.1937 24.0618 11.2825 24.0618C11.4452 24.0618 11.6142 24.0618 11.7894 24.0618C11.9771 24.0493 12.1586 24.0368 12.3338 24.0243ZM26.0569 12.3099C23.9042 12.3099 22.4587 13.0108 21.7203 14.4125C21.3073 15.2009 21.1008 16.4149 21.1008 18.0545V27.8352H15.7129V7.37259H20.8192V10.9395C21.6452 9.5753 22.3649 8.6429 22.9781 8.14229C23.9793 7.30376 25.2809 6.88449 26.8829 6.88449C26.983 6.88449 27.0644 6.89075 27.127 6.90327C27.202 6.90327 27.3585 6.90952 27.5963 6.92204V12.4038C27.2584 12.3662 26.958 12.3412 26.6952 12.3287C26.4324 12.3162 26.2196 12.3099 26.0569 12.3099ZM48.9788 27.8352H42.3143L38.785 21.6964L35.2369 27.8352H28.7414L35.725 17.4725L29.0418 7.41014H35.5936L39.0103 13.3424L42.3519 7.41014H48.716L41.9952 17.3786L48.9788 27.8352ZM50.1427 7.37259H56.1501L60.4116 22.4661L64.7669 7.37259H70.5114L63.1336 27.8352H57.483L50.1427 7.37259ZM73.6653 0.163744H79.0156V27.8352H73.6653V0.163744ZM84.1594 22.2408H89.8477V27.8352H84.1594V22.2408Z" fill="white"/>
</svg>
