<svg width="30" height="30" viewBox="0 0 30 30" fill="none" xmlns="http://www.w3.org/2000/svg">
<g clip-path="url(#clip0_1_5055)">
<path d="M29.1733 5.84697C28.101 6.31735 26.9584 6.62913 25.7671 6.78051C26.9926 6.04882 27.928 4.899 28.3677 3.5131C27.2251 4.19434 25.9635 4.67553 24.6191 4.94406C23.5342 3.78884 21.9879 3.07336 20.301 3.07336C17.0282 3.07336 14.3933 5.72982 14.3933 8.98642C14.3933 9.455 14.433 9.90555 14.5303 10.3345C9.61568 10.0948 5.26694 7.73929 2.34555 4.15109C1.83553 5.03597 1.53636 6.04882 1.53636 7.13915C1.53636 9.18647 2.59066 11.0013 4.16218 12.052C3.21242 12.034 2.28067 11.7582 1.49131 11.3239C1.49131 11.3419 1.49131 11.3653 1.49131 11.3888C1.49131 14.2615 3.54042 16.6476 6.22752 17.1973C5.74633 17.3289 5.22188 17.3919 4.67762 17.3919C4.29915 17.3919 3.91708 17.3703 3.55844 17.291C4.32438 19.6321 6.49785 21.3532 9.08222 21.4091C7.07095 22.9824 4.51722 23.9304 1.75263 23.9304C1.26783 23.9304 0.802861 23.9087 0.337891 23.8493C2.9565 25.5379 6.05991 26.5021 9.40662 26.5021C20.2848 26.5021 26.2321 17.4911 26.2321 9.68027C26.2321 9.41895 26.2231 9.16664 26.2104 8.91613C27.3837 8.08351 28.3695 7.04364 29.1733 5.84697Z" fill="#808080"/>
</g>
<defs>
<clipPath id="clip0_1_5055">
<rect width="28.8354" height="28.8354" fill="white" transform="translate(0.337891 0.369995)"/>
</clipPath>
</defs>
</svg>
