<svg width="30" height="30" viewBox="0 0 30 30" fill="none" xmlns="http://www.w3.org/2000/svg">
<g clip-path="url(#clip0_1_5056)">
<path d="M27.8125 6.78583C27.0304 5.39453 26.1815 5.13861 24.4532 5.04129C22.7267 4.92415 18.3852 4.87549 14.6239 4.87549C10.8555 4.87549 6.51218 4.92415 4.78746 5.03949C3.06275 5.13861 2.2121 5.39272 1.42273 6.78583C0.617145 8.17534 0.202637 10.5687 0.202637 14.7822C0.202637 14.7859 0.202637 14.7877 0.202637 14.7877C0.202637 14.7913 0.202637 14.7931 0.202637 14.7931V14.7967C0.202637 18.9922 0.617145 21.4036 1.42273 22.7787C2.2121 24.17 3.06094 24.4223 4.78566 24.5394C6.51218 24.6403 10.8555 24.6998 14.6239 24.6998C18.3852 24.6998 22.7267 24.6403 24.455 24.5412C26.1833 24.4241 27.0322 24.1718 27.8143 22.7805C28.6271 21.4054 29.038 18.994 29.038 14.7985C29.038 14.7985 29.038 14.7931 29.038 14.7895C29.038 14.7895 29.038 14.7859 29.038 14.784C29.038 10.5687 28.6271 8.17534 27.8125 6.78583ZM11.0159 20.1943V9.38102L20.027 14.7877L11.0159 20.1943Z" fill="#808080"/>
</g>
<defs>
<clipPath id="clip0_1_5056">
<rect width="28.8354" height="28.8354" fill="white" transform="translate(0.202637 0.369995)"/>
</clipPath>
</defs>
</svg>
